<mxfile host="app.diagrams.net" agent="Mozilla/5.0 (Windows NT 10.0; Win64; x64) AppleWebKit/537.36 (KHTML, like Gecko) Chrome/135.0.0.0 Safari/537.36 Edg/135.0.0.0" version="26.2.9">
  <diagram name="PÃ¡gina-1" id="ZvY7RlKto1usyJ_V8Ote">
    <mxGraphModel dx="1950" dy="836" grid="1" gridSize="10" guides="1" tooltips="1" connect="1" arrows="1" fold="1" page="1" pageScale="1" pageWidth="827" pageHeight="1169" background="none" math="0" shadow="0">
      <root>
        <mxCell id="0" />
        <mxCell id="1" parent="0" />
        <mxCell id="pYvZ6EQq_U6aykrmB1s--96" value="S3" style="edgeStyle=none;rounded=0;orthogonalLoop=1;jettySize=auto;html=1;exitX=0.5;exitY=1;exitDx=0;exitDy=0;fontSize=15;" parent="1" source="pYvZ6EQq_U6aykrmB1s--72" edge="1">
          <mxGeometry x="1" y="10" relative="1" as="geometry">
            <mxPoint x="735" y="470" as="targetPoint" />
            <mxPoint x="-10" y="10" as="offset" />
          </mxGeometry>
        </mxCell>
        <mxCell id="pYvZ6EQq_U6aykrmB1s--118" value="A3" style="edgeStyle=none;rounded=0;orthogonalLoop=1;jettySize=auto;html=1;exitX=0.25;exitY=0;exitDx=0;exitDy=0;endArrow=none;startFill=1;startArrow=classic;fontSize=15;" parent="1" source="pYvZ6EQq_U6aykrmB1s--72" edge="1">
          <mxGeometry x="1" y="10" relative="1" as="geometry">
            <mxPoint x="723" y="350" as="targetPoint" />
            <mxPoint x="10" y="-9" as="offset" />
          </mxGeometry>
        </mxCell>
        <mxCell id="pYvZ6EQq_U6aykrmB1s--119" value="B3" style="edgeStyle=none;rounded=0;orthogonalLoop=1;jettySize=auto;html=1;exitX=0.75;exitY=0;exitDx=0;exitDy=0;endArrow=none;startFill=1;startArrow=classic;fontSize=15;" parent="1" source="pYvZ6EQq_U6aykrmB1s--72" edge="1">
          <mxGeometry x="1" y="10" relative="1" as="geometry">
            <mxPoint x="748" y="350" as="targetPoint" />
            <mxPoint x="10" y="-10" as="offset" />
          </mxGeometry>
        </mxCell>
        <mxCell id="pYvZ6EQq_U6aykrmB1s--72" value="Full&lt;div&gt;Adder&lt;/div&gt;" style="whiteSpace=wrap;html=1;aspect=fixed;fontSize=15;fillColor=#dae8fc;strokeColor=#6c8ebf;rounded=0;" parent="1" vertex="1">
          <mxGeometry x="710" y="380" width="50" height="50" as="geometry" />
        </mxCell>
        <mxCell id="pYvZ6EQq_U6aykrmB1s--87" style="edgeStyle=none;rounded=0;orthogonalLoop=1;jettySize=auto;html=1;exitX=0;exitY=0.5;exitDx=0;exitDy=0;entryX=1;entryY=0.5;entryDx=0;entryDy=0;endArrow=none;startFill=0;fontSize=15;" parent="1" source="pYvZ6EQq_U6aykrmB1s--73" target="pYvZ6EQq_U6aykrmB1s--72" edge="1">
          <mxGeometry relative="1" as="geometry" />
        </mxCell>
        <mxCell id="pYvZ6EQq_U6aykrmB1s--97" value="S2" style="edgeStyle=none;rounded=0;orthogonalLoop=1;jettySize=auto;html=1;exitX=0.5;exitY=1;exitDx=0;exitDy=0;fontSize=15;" parent="1" source="pYvZ6EQq_U6aykrmB1s--73" edge="1">
          <mxGeometry x="1" y="10" relative="1" as="geometry">
            <mxPoint x="825" y="470" as="targetPoint" />
            <mxPoint x="-10" y="10" as="offset" />
          </mxGeometry>
        </mxCell>
        <mxCell id="pYvZ6EQq_U6aykrmB1s--116" value="A2" style="edgeStyle=none;rounded=0;orthogonalLoop=1;jettySize=auto;html=1;exitX=0.25;exitY=0;exitDx=0;exitDy=0;endArrow=none;startFill=1;startArrow=classic;fontSize=15;" parent="1" source="pYvZ6EQq_U6aykrmB1s--73" edge="1">
          <mxGeometry x="1" y="10" relative="1" as="geometry">
            <mxPoint x="813" y="350" as="targetPoint" />
            <mxPoint x="10" y="-9" as="offset" />
          </mxGeometry>
        </mxCell>
        <mxCell id="pYvZ6EQq_U6aykrmB1s--117" value="B2" style="edgeStyle=none;rounded=0;orthogonalLoop=1;jettySize=auto;html=1;exitX=0.75;exitY=0;exitDx=0;exitDy=0;endArrow=none;startFill=1;startArrow=classic;fontSize=15;" parent="1" source="pYvZ6EQq_U6aykrmB1s--73" edge="1">
          <mxGeometry x="1" y="10" relative="1" as="geometry">
            <mxPoint x="838" y="350" as="targetPoint" />
            <mxPoint x="10" y="-9" as="offset" />
          </mxGeometry>
        </mxCell>
        <mxCell id="pYvZ6EQq_U6aykrmB1s--73" value="Full&lt;div&gt;Adder&lt;/div&gt;" style="whiteSpace=wrap;html=1;aspect=fixed;fontSize=15;fillColor=#dae8fc;strokeColor=#6c8ebf;rounded=0;" parent="1" vertex="1">
          <mxGeometry x="800" y="380" width="50" height="50" as="geometry" />
        </mxCell>
        <mxCell id="pYvZ6EQq_U6aykrmB1s--86" style="edgeStyle=none;rounded=0;orthogonalLoop=1;jettySize=auto;html=1;exitX=0;exitY=0.5;exitDx=0;exitDy=0;entryX=1;entryY=0.5;entryDx=0;entryDy=0;endArrow=none;startFill=0;fontSize=15;" parent="1" source="pYvZ6EQq_U6aykrmB1s--74" target="pYvZ6EQq_U6aykrmB1s--73" edge="1">
          <mxGeometry relative="1" as="geometry" />
        </mxCell>
        <mxCell id="pYvZ6EQq_U6aykrmB1s--98" value="S1" style="edgeStyle=none;rounded=0;orthogonalLoop=1;jettySize=auto;html=1;exitX=0.5;exitY=1;exitDx=0;exitDy=0;fontSize=15;" parent="1" source="pYvZ6EQq_U6aykrmB1s--74" edge="1">
          <mxGeometry x="1" y="10" relative="1" as="geometry">
            <mxPoint x="915" y="470" as="targetPoint" />
            <mxPoint x="-10" y="10" as="offset" />
          </mxGeometry>
        </mxCell>
        <mxCell id="pYvZ6EQq_U6aykrmB1s--114" value="A1" style="edgeStyle=none;rounded=0;orthogonalLoop=1;jettySize=auto;html=1;exitX=0.25;exitY=0;exitDx=0;exitDy=0;endArrow=none;startFill=1;startArrow=classic;fontSize=15;endSize=16;" parent="1" source="pYvZ6EQq_U6aykrmB1s--74" edge="1">
          <mxGeometry x="1" y="10" relative="1" as="geometry">
            <mxPoint x="903" y="350" as="targetPoint" />
            <mxPoint x="10" y="-9" as="offset" />
          </mxGeometry>
        </mxCell>
        <mxCell id="pYvZ6EQq_U6aykrmB1s--115" value="B1" style="edgeStyle=none;rounded=0;orthogonalLoop=1;jettySize=auto;html=1;exitX=0.75;exitY=0;exitDx=0;exitDy=0;endArrow=none;startFill=1;startArrow=classic;fontSize=15;endSize=16;" parent="1" source="pYvZ6EQq_U6aykrmB1s--74" edge="1">
          <mxGeometry x="1" y="-10" relative="1" as="geometry">
            <mxPoint x="928" y="350" as="targetPoint" />
            <mxPoint x="-8" y="-10" as="offset" />
          </mxGeometry>
        </mxCell>
        <mxCell id="pYvZ6EQq_U6aykrmB1s--74" value="Full&lt;div&gt;Adder&lt;/div&gt;" style="whiteSpace=wrap;html=1;aspect=fixed;fontSize=15;fillColor=#dae8fc;strokeColor=#6c8ebf;rounded=0;" parent="1" vertex="1">
          <mxGeometry x="890" y="380" width="50" height="50" as="geometry" />
        </mxCell>
        <mxCell id="pYvZ6EQq_U6aykrmB1s--85" style="edgeStyle=none;rounded=0;orthogonalLoop=1;jettySize=auto;html=1;exitX=0;exitY=0.5;exitDx=0;exitDy=0;entryX=1;entryY=0.5;entryDx=0;entryDy=0;endArrow=none;startFill=0;fontSize=15;" parent="1" source="pYvZ6EQq_U6aykrmB1s--75" target="pYvZ6EQq_U6aykrmB1s--74" edge="1">
          <mxGeometry relative="1" as="geometry" />
        </mxCell>
        <mxCell id="pYvZ6EQq_U6aykrmB1s--88" style="edgeStyle=none;rounded=0;orthogonalLoop=1;jettySize=auto;html=1;exitX=1;exitY=0.5;exitDx=0;exitDy=0;startArrow=block;startFill=1;endArrow=none;fontSize=15;" parent="1" source="pYvZ6EQq_U6aykrmB1s--75" edge="1">
          <mxGeometry relative="1" as="geometry">
            <mxPoint x="1060" y="405" as="targetPoint" />
          </mxGeometry>
        </mxCell>
        <mxCell id="pYvZ6EQq_U6aykrmB1s--103" value="Cin" style="edgeLabel;html=1;align=center;verticalAlign=middle;resizable=0;points=[];fontSize=15;rounded=0;" parent="pYvZ6EQq_U6aykrmB1s--88" vertex="1" connectable="0">
          <mxGeometry x="0.4" y="4" relative="1" as="geometry">
            <mxPoint y="-11" as="offset" />
          </mxGeometry>
        </mxCell>
        <mxCell id="pYvZ6EQq_U6aykrmB1s--99" value="S0" style="edgeStyle=none;rounded=0;orthogonalLoop=1;jettySize=auto;html=1;exitX=0.5;exitY=1;exitDx=0;exitDy=0;fontSize=15;" parent="1" source="pYvZ6EQq_U6aykrmB1s--75" edge="1">
          <mxGeometry x="1" y="10" relative="1" as="geometry">
            <mxPoint x="1005" y="470" as="targetPoint" />
            <mxPoint x="-10" y="10" as="offset" />
          </mxGeometry>
        </mxCell>
        <mxCell id="pYvZ6EQq_U6aykrmB1s--112" value="A0" style="edgeStyle=none;rounded=0;orthogonalLoop=1;jettySize=auto;html=1;exitX=0.25;exitY=0;exitDx=0;exitDy=0;fontSize=15;endArrow=none;startFill=1;startArrow=classic;endSize=6;startSize=6;jumpSize=6;jumpStyle=arc;" parent="1" source="pYvZ6EQq_U6aykrmB1s--75" edge="1">
          <mxGeometry x="1" y="10" relative="1" as="geometry">
            <mxPoint x="993" y="350" as="targetPoint" />
            <mxPoint x="10" y="-9" as="offset" />
          </mxGeometry>
        </mxCell>
        <mxCell id="pYvZ6EQq_U6aykrmB1s--113" value="B0" style="edgeStyle=none;rounded=0;orthogonalLoop=1;jettySize=auto;html=1;exitX=0.75;exitY=0;exitDx=0;exitDy=0;fontSize=15;endArrow=none;startFill=1;startArrow=classic;endSize=6;startSize=6;jumpSize=6;jumpStyle=arc;" parent="1" source="pYvZ6EQq_U6aykrmB1s--75" edge="1">
          <mxGeometry x="1" y="10" relative="1" as="geometry">
            <mxPoint x="1018" y="350" as="targetPoint" />
            <mxPoint x="10" y="-9" as="offset" />
          </mxGeometry>
        </mxCell>
        <mxCell id="pYvZ6EQq_U6aykrmB1s--75" value="Full&lt;div&gt;Adder&lt;/div&gt;" style="whiteSpace=wrap;html=1;aspect=fixed;fontSize=15;fillColor=#dae8fc;strokeColor=#6c8ebf;rounded=0;" parent="1" vertex="1">
          <mxGeometry x="980" y="380" width="50" height="50" as="geometry" />
        </mxCell>
        <mxCell id="E4-3knK5RSkZOcYOayk6-2" value="" style="verticalLabelPosition=bottom;shadow=0;dashed=0;align=center;html=1;verticalAlign=top;shape=mxgraph.electrical.logic_gates.logic_gate;operation=xor;rotation=90;rounded=0;" vertex="1" parent="1">
          <mxGeometry x="1069.34" y="389.15" width="70.44" height="50.63" as="geometry" />
        </mxCell>
        <mxCell id="E4-3knK5RSkZOcYOayk6-14" value="A3" style="endArrow=none;html=1;rounded=0;exitX=0.001;exitY=0.75;exitDx=0;exitDy=0;exitPerimeter=0;fontSize=16;" edge="1" parent="1" source="E4-3knK5RSkZOcYOayk6-2">
          <mxGeometry x="1" y="10" width="50" height="50" relative="1" as="geometry">
            <mxPoint x="1107" y="379" as="sourcePoint" />
            <mxPoint x="1092" y="350" as="targetPoint" />
            <mxPoint x="10" y="-10" as="offset" />
          </mxGeometry>
        </mxCell>
        <mxCell id="E4-3knK5RSkZOcYOayk6-15" value="B3" style="endArrow=none;html=1;rounded=0;exitX=0.004;exitY=0.251;exitDx=0;exitDy=0;exitPerimeter=0;fontSize=16;" edge="1" parent="1" source="E4-3knK5RSkZOcYOayk6-2">
          <mxGeometry x="1" y="-10" width="50" height="50" relative="1" as="geometry">
            <mxPoint x="910" y="390" as="sourcePoint" />
            <mxPoint x="1117" y="350" as="targetPoint" />
            <mxPoint x="-10" y="-10" as="offset" />
          </mxGeometry>
        </mxCell>
        <mxCell id="E4-3knK5RSkZOcYOayk6-27" value="" style="verticalLabelPosition=bottom;shadow=0;dashed=0;align=center;html=1;verticalAlign=top;shape=mxgraph.electrical.logic_gates.logic_gate;operation=xor;rotation=90;rounded=0;" vertex="1" parent="1">
          <mxGeometry x="1130" y="389.15" width="70.44" height="50.63" as="geometry" />
        </mxCell>
        <mxCell id="E4-3knK5RSkZOcYOayk6-28" value="A2" style="endArrow=none;html=1;rounded=0;exitX=0.001;exitY=0.75;exitDx=0;exitDy=0;exitPerimeter=0;fontSize=16;" edge="1" parent="1" source="E4-3knK5RSkZOcYOayk6-27">
          <mxGeometry x="1" y="10" width="50" height="50" relative="1" as="geometry">
            <mxPoint x="1167.66" y="379" as="sourcePoint" />
            <mxPoint x="1152.66" y="350" as="targetPoint" />
            <mxPoint x="10" y="-10" as="offset" />
          </mxGeometry>
        </mxCell>
        <mxCell id="E4-3knK5RSkZOcYOayk6-29" value="B2" style="endArrow=none;html=1;rounded=0;exitX=0.004;exitY=0.251;exitDx=0;exitDy=0;exitPerimeter=0;fontSize=16;" edge="1" parent="1" source="E4-3knK5RSkZOcYOayk6-27">
          <mxGeometry x="1" y="-10" width="50" height="50" relative="1" as="geometry">
            <mxPoint x="970.66" y="390" as="sourcePoint" />
            <mxPoint x="1177.66" y="350" as="targetPoint" />
            <mxPoint x="-10" y="-10" as="offset" />
          </mxGeometry>
        </mxCell>
        <mxCell id="E4-3knK5RSkZOcYOayk6-30" value="" style="verticalLabelPosition=bottom;shadow=0;dashed=0;align=center;html=1;verticalAlign=top;shape=mxgraph.electrical.logic_gates.logic_gate;operation=xor;rotation=90;rounded=0;" vertex="1" parent="1">
          <mxGeometry x="1190" y="389.15" width="70.44" height="50.63" as="geometry" />
        </mxCell>
        <mxCell id="E4-3knK5RSkZOcYOayk6-31" value="A1" style="endArrow=none;html=1;rounded=0;exitX=0.001;exitY=0.75;exitDx=0;exitDy=0;exitPerimeter=0;fontSize=16;" edge="1" parent="1" source="E4-3knK5RSkZOcYOayk6-30">
          <mxGeometry x="1" y="10" width="50" height="50" relative="1" as="geometry">
            <mxPoint x="1227.66" y="379" as="sourcePoint" />
            <mxPoint x="1212.66" y="350" as="targetPoint" />
            <mxPoint x="10" y="-10" as="offset" />
          </mxGeometry>
        </mxCell>
        <mxCell id="E4-3knK5RSkZOcYOayk6-32" value="B1" style="endArrow=none;html=1;rounded=0;exitX=0.004;exitY=0.251;exitDx=0;exitDy=0;exitPerimeter=0;fontSize=16;" edge="1" parent="1" source="E4-3knK5RSkZOcYOayk6-30">
          <mxGeometry x="1" y="-10" width="50" height="50" relative="1" as="geometry">
            <mxPoint x="1030.66" y="390" as="sourcePoint" />
            <mxPoint x="1237.66" y="350" as="targetPoint" />
            <mxPoint x="-10" y="-10" as="offset" />
          </mxGeometry>
        </mxCell>
        <mxCell id="E4-3knK5RSkZOcYOayk6-33" value="" style="verticalLabelPosition=bottom;shadow=0;dashed=0;align=center;html=1;verticalAlign=top;shape=mxgraph.electrical.logic_gates.logic_gate;operation=xor;rotation=90;rounded=0;" vertex="1" parent="1">
          <mxGeometry x="1250" y="389.15" width="70.44" height="50.63" as="geometry" />
        </mxCell>
        <mxCell id="E4-3knK5RSkZOcYOayk6-34" value="A0" style="endArrow=none;html=1;rounded=0;exitX=0.001;exitY=0.75;exitDx=0;exitDy=0;exitPerimeter=0;fontSize=16;" edge="1" parent="1" source="E4-3knK5RSkZOcYOayk6-33">
          <mxGeometry x="1" y="10" width="50" height="50" relative="1" as="geometry">
            <mxPoint x="1287.66" y="379" as="sourcePoint" />
            <mxPoint x="1272.66" y="350" as="targetPoint" />
            <mxPoint x="10" y="-10" as="offset" />
          </mxGeometry>
        </mxCell>
        <mxCell id="E4-3knK5RSkZOcYOayk6-35" value="B0" style="endArrow=none;html=1;rounded=0;exitX=0.004;exitY=0.251;exitDx=0;exitDy=0;exitPerimeter=0;fontSize=16;" edge="1" parent="1" source="E4-3knK5RSkZOcYOayk6-33">
          <mxGeometry x="1" y="-10" width="50" height="50" relative="1" as="geometry">
            <mxPoint x="1090.66" y="390" as="sourcePoint" />
            <mxPoint x="1297.66" y="350" as="targetPoint" />
            <mxPoint x="-10" y="-10" as="offset" />
          </mxGeometry>
        </mxCell>
        <mxCell id="E4-3knK5RSkZOcYOayk6-36" value="" style="verticalLabelPosition=bottom;shadow=0;dashed=0;align=center;html=1;verticalAlign=top;shape=mxgraph.electrical.logic_gates.logic_gate;operation=and;rotation=-180;" vertex="1" parent="1">
          <mxGeometry x="969" y="535" width="70" height="40" as="geometry" />
        </mxCell>
        <mxCell id="E4-3knK5RSkZOcYOayk6-49" value="" style="endArrow=none;html=1;rounded=0;entryX=0.999;entryY=0.5;entryDx=0;entryDy=0;entryPerimeter=0;exitX=0;exitY=0.75;exitDx=0;exitDy=0;exitPerimeter=0;" edge="1" parent="1" source="E4-3knK5RSkZOcYOayk6-36" target="E4-3knK5RSkZOcYOayk6-2">
          <mxGeometry width="50" height="50" relative="1" as="geometry">
            <mxPoint x="1030" y="520" as="sourcePoint" />
            <mxPoint x="1105.0156700000002" y="449.9667599999999" as="targetPoint" />
            <Array as="points">
              <mxPoint x="1105" y="545" />
            </Array>
          </mxGeometry>
        </mxCell>
        <mxCell id="E4-3knK5RSkZOcYOayk6-50" value="" style="endArrow=none;html=1;rounded=0;entryX=1;entryY=0.5;entryDx=0;entryDy=0;entryPerimeter=0;exitX=0;exitY=0.25;exitDx=0;exitDy=0;exitPerimeter=0;" edge="1" parent="1" source="E4-3knK5RSkZOcYOayk6-36" target="E4-3knK5RSkZOcYOayk6-27">
          <mxGeometry width="50" height="50" relative="1" as="geometry">
            <mxPoint x="1030" y="540" as="sourcePoint" />
            <mxPoint x="1120" y="410" as="targetPoint" />
            <Array as="points">
              <mxPoint x="1165" y="565" />
            </Array>
          </mxGeometry>
        </mxCell>
        <mxCell id="E4-3knK5RSkZOcYOayk6-51" value="" style="verticalLabelPosition=bottom;shadow=0;dashed=0;align=center;html=1;verticalAlign=top;shape=mxgraph.electrical.logic_gates.logic_gate;operation=and;rotation=-180;" vertex="1" parent="1">
          <mxGeometry x="969" y="595" width="70" height="40" as="geometry" />
        </mxCell>
        <mxCell id="E4-3knK5RSkZOcYOayk6-52" value="" style="endArrow=none;html=1;rounded=0;exitX=0;exitY=0.75;exitDx=0;exitDy=0;exitPerimeter=0;entryX=1;entryY=0.5;entryDx=0;entryDy=0;entryPerimeter=0;" edge="1" parent="1" source="E4-3knK5RSkZOcYOayk6-51" target="E4-3knK5RSkZOcYOayk6-30">
          <mxGeometry width="50" height="50" relative="1" as="geometry">
            <mxPoint x="1030" y="580" as="sourcePoint" />
            <mxPoint x="1230" y="450" as="targetPoint" />
            <Array as="points">
              <mxPoint x="1110" y="605" />
              <mxPoint x="1225" y="605" />
            </Array>
          </mxGeometry>
        </mxCell>
        <mxCell id="E4-3knK5RSkZOcYOayk6-53" value="" style="endArrow=none;html=1;rounded=0;exitX=0;exitY=0.25;exitDx=0;exitDy=0;exitPerimeter=0;entryX=1;entryY=0.5;entryDx=0;entryDy=0;entryPerimeter=0;" edge="1" parent="1" source="E4-3knK5RSkZOcYOayk6-51" target="E4-3knK5RSkZOcYOayk6-33">
          <mxGeometry width="50" height="50" relative="1" as="geometry">
            <mxPoint x="1030" y="600" as="sourcePoint" />
            <mxPoint x="1290" y="450" as="targetPoint" />
            <Array as="points">
              <mxPoint x="1165" y="625" />
              <mxPoint x="1285" y="625" />
            </Array>
          </mxGeometry>
        </mxCell>
        <mxCell id="E4-3knK5RSkZOcYOayk6-54" value="" style="verticalLabelPosition=bottom;shadow=0;dashed=0;align=center;html=1;verticalAlign=top;shape=mxgraph.electrical.logic_gates.logic_gate;operation=and;rotation=-180;" vertex="1" parent="1">
          <mxGeometry x="837" y="570" width="70" height="40" as="geometry" />
        </mxCell>
        <mxCell id="E4-3knK5RSkZOcYOayk6-55" value="" style="verticalLabelPosition=bottom;shadow=0;dashed=0;align=center;html=1;verticalAlign=top;shape=mxgraph.electrical.logic_gates.logic_gate;operation=and;rotation=-180;" vertex="1" parent="1">
          <mxGeometry x="720" y="560" width="70" height="40" as="geometry" />
        </mxCell>
        <mxCell id="E4-3knK5RSkZOcYOayk6-56" value="" style="endArrow=oval;html=1;rounded=0;endFill=1;exitX=0.001;exitY=0.737;exitDx=0;exitDy=0;exitPerimeter=0;" edge="1" parent="1" source="E4-3knK5RSkZOcYOayk6-55">
          <mxGeometry width="50" height="50" relative="1" as="geometry">
            <mxPoint x="800" y="565" as="sourcePoint" />
            <mxPoint x="1050" y="405" as="targetPoint" />
            <Array as="points">
              <mxPoint x="790" y="510" />
              <mxPoint x="1050" y="510" />
            </Array>
          </mxGeometry>
        </mxCell>
        <mxCell id="E4-3knK5RSkZOcYOayk6-57" value="" style="endArrow=none;html=1;rounded=0;exitX=0;exitY=0.25;exitDx=0;exitDy=0;exitPerimeter=0;entryX=0.957;entryY=0.5;entryDx=0;entryDy=0;entryPerimeter=0;" edge="1" parent="1" source="E4-3knK5RSkZOcYOayk6-55" target="E4-3knK5RSkZOcYOayk6-54">
          <mxGeometry width="50" height="50" relative="1" as="geometry">
            <mxPoint x="800" y="585" as="sourcePoint" />
            <mxPoint x="830" y="590" as="targetPoint" />
          </mxGeometry>
        </mxCell>
        <mxCell id="E4-3knK5RSkZOcYOayk6-58" value="" style="endArrow=none;html=1;rounded=0;exitX=0.002;exitY=0.25;exitDx=0;exitDy=0;exitPerimeter=0;entryX=0.986;entryY=0.5;entryDx=0;entryDy=0;entryPerimeter=0;" edge="1" parent="1" source="E4-3knK5RSkZOcYOayk6-54" target="E4-3knK5RSkZOcYOayk6-51">
          <mxGeometry width="50" height="50" relative="1" as="geometry">
            <mxPoint x="820" y="560" as="sourcePoint" />
            <mxPoint x="960" y="610" as="targetPoint" />
            <Array as="points">
              <mxPoint x="940" y="600" />
              <mxPoint x="940" y="615" />
            </Array>
          </mxGeometry>
        </mxCell>
        <mxCell id="E4-3knK5RSkZOcYOayk6-59" value="" style="endArrow=none;html=1;rounded=0;entryX=0.986;entryY=0.5;entryDx=0;entryDy=0;entryPerimeter=0;exitX=0;exitY=0.75;exitDx=0;exitDy=0;exitPerimeter=0;" edge="1" parent="1" source="E4-3knK5RSkZOcYOayk6-54" target="E4-3knK5RSkZOcYOayk6-36">
          <mxGeometry width="50" height="50" relative="1" as="geometry">
            <mxPoint x="910" y="580" as="sourcePoint" />
            <mxPoint x="960" y="550" as="targetPoint" />
            <Array as="points">
              <mxPoint x="940" y="580" />
              <mxPoint x="940" y="555" />
            </Array>
          </mxGeometry>
        </mxCell>
        <mxCell id="E4-3knK5RSkZOcYOayk6-118" value="&lt;font style=&quot;font-size: 15px;&quot;&gt;Cout&lt;/font&gt;" style="edgeStyle=orthogonalEdgeStyle;rounded=0;orthogonalLoop=1;jettySize=auto;html=1;exitX=1;exitY=0.5;exitDx=0;exitDy=0;exitPerimeter=0;" edge="1" parent="1" source="E4-3knK5RSkZOcYOayk6-67">
          <mxGeometry x="-0.3333" y="-15" relative="1" as="geometry">
            <mxPoint x="580" y="565" as="targetPoint" />
            <mxPoint as="offset" />
          </mxGeometry>
        </mxCell>
        <mxCell id="E4-3knK5RSkZOcYOayk6-67" value="" style="verticalLabelPosition=bottom;shadow=0;dashed=0;align=center;html=1;verticalAlign=top;shape=mxgraph.electrical.logic_gates.logic_gate;operation=or;rotation=-180;" vertex="1" parent="1">
          <mxGeometry x="610" y="545" width="70" height="40" as="geometry" />
        </mxCell>
        <mxCell id="E4-3knK5RSkZOcYOayk6-68" style="edgeStyle=orthogonalEdgeStyle;rounded=0;orthogonalLoop=1;jettySize=auto;html=1;exitX=0;exitY=0.5;exitDx=0;exitDy=0;entryX=0;entryY=0.75;entryDx=0;entryDy=0;entryPerimeter=0;endArrow=none;startFill=0;" edge="1" parent="1" source="pYvZ6EQq_U6aykrmB1s--72" target="E4-3knK5RSkZOcYOayk6-67">
          <mxGeometry relative="1" as="geometry">
            <Array as="points">
              <mxPoint x="700" y="405" />
              <mxPoint x="700" y="555" />
            </Array>
          </mxGeometry>
        </mxCell>
        <mxCell id="E4-3knK5RSkZOcYOayk6-69" style="edgeStyle=orthogonalEdgeStyle;rounded=0;orthogonalLoop=1;jettySize=auto;html=1;exitX=1;exitY=0.5;exitDx=0;exitDy=0;exitPerimeter=0;entryX=0;entryY=0.25;entryDx=0;entryDy=0;entryPerimeter=0;endArrow=none;startFill=0;" edge="1" parent="1" source="E4-3knK5RSkZOcYOayk6-55" target="E4-3knK5RSkZOcYOayk6-67">
          <mxGeometry relative="1" as="geometry" />
        </mxCell>
      </root>
    </mxGraphModel>
  </diagram>
</mxfile>
